name Walk4.mot
datacolumns 19
datarows 10
range 4.64900000 4.65800000
endheader

                time	   L_ground_force_vx	   L_ground_force_vy	   L_ground_force_vz	   L_ground_force_px	   L_ground_force_py	   L_ground_force_pz	   R_ground_force_vx	   R_ground_force_vy	   R_ground_force_vz	   R_ground_force_px	   R_ground_force_py	   R_ground_force_pz	   L_ground_torque_x	   L_ground_torque_y	   L_ground_torque_z	   R_ground_torque_x	   R_ground_torque_y	   R_ground_torque_z	
          4.64900000	          0.00000000	          0.00000000	          0.00000000	          0.00000000	          0.00000000	          0.00000000	         17.09580274	        128.60111889	          4.16012422	          0.38589929	          0.00000000	          0.14430741	          0.00000000	          0.00000000	          0.00000000	          0.00000000	         -3.90719435	          0.00000000	
          4.65000000	          0.00000000	          0.00000000	          0.00000000	          0.00000000	          0.00000000	          0.00000000	         14.95761123	        121.74517722	          4.04806552	          0.38883238	          0.00000000	          0.14383084	          0.00000000	          0.00000000	          0.00000000	          0.00000000	         -3.55696093	          0.00000000	
          4.65100000	          0.00000000	          0.00000000	          0.00000000	          0.00000000	          0.00000000	          0.00000000	         12.85540344	        115.39814601	          3.94939443	          0.39171600	          0.00000000	          0.14338543	          0.00000000	          0.00000000	          0.00000000	          0.00000000	         -3.21371227	          0.00000000	
          4.65200000	          0.00000000	          0.00000000	          0.00000000	          0.00000000	          0.00000000	          0.00000000	         10.82602412	        109.55023260	          3.87452279	          0.39452053	          0.00000000	          0.14296215	          0.00000000	          0.00000000	          0.00000000	          0.00000000	         -2.87698417	          0.00000000	
          4.65300000	          0.00000000	          0.00000000	          0.00000000	          0.00000000	          0.00000000	          0.00000000	          8.88882803	        104.15811943	          3.82377084	          0.39731126	          0.00000000	          0.14251470	          0.00000000	          0.00000000	          0.00000000	          0.00000000	         -2.55000456	          0.00000000	
          4.65400000	          0.00000000	          0.00000000	          0.00000000	          0.00000000	          0.00000000	          0.00000000	          7.05178359	         99.17359641	          3.78820335	          0.40017050	          0.00000000	          0.14198359	          0.00000000	          0.00000000	          0.00000000	          0.00000000	         -2.23554633	          0.00000000	
          4.65500000	          0.00000000	          0.00000000	          0.00000000	          0.00000000	          0.00000000	          0.00000000	          5.32060474	         94.55672681	          3.75754022	          0.40311839	          0.00000000	          0.14136849	          0.00000000	          0.00000000	          0.00000000	          0.00000000	         -1.93467227	          0.00000000	
          4.65600000	          0.00000000	          0.00000000	          0.00000000	          0.00000000	          0.00000000	          0.00000000	          3.70184467	         90.27304539	          3.73373446	          0.40609608	          0.00000000	          0.14070421	          0.00000000	          0.00000000	          0.00000000	          0.00000000	         -1.65018872	          0.00000000	
          4.65700000	          0.00000000	          0.00000000	          0.00000000	          0.00000000	          0.00000000	          0.00000000	          2.19958490	         86.31693783	          3.73620788	          0.40909113	          0.00000000	          0.14000091	          0.00000000	          0.00000000	          0.00000000	          0.00000000	         -1.38601792	          0.00000000	
          4.65800000	          0.00000000	          0.00000000	          0.00000000	          0.00000000	          0.00000000	          0.00000000	          0.80257082	         82.71467259	          3.79291057	          0.41221258	          0.00000000	          0.13923390	          0.00000000	          0.00000000	          0.00000000	          0.00000000	         -1.14274930	          0.00000000	
